<svg xmlns="http://www.w3.org/2000/svg" viewBox="0 0 100 100" width="100" height="100">
    <rect width="100" height="100" rx="12" fill="#060913" stroke="#00FF9C" stroke-width="2"/>
    
    <path d="M 0,25 L 100,25 M 0,50 L 100,50 M 0,75 L 100,75 M 25,0 L 25,100 M 50,0 L 50,100 M 75,0 L 75,100" stroke="#101a30" stroke-width="0.5"/>
    
    <polygon points="50,15 80,35 80,65 50,85 20,65 20,35" fill="none" stroke="#FF6A00" stroke-width="1.5" stroke-linejoin="round"/>
    
    <circle cx="50" cy="50" r="18" fill="none" stroke="#00D2FF" stroke-width="2"/>
    
    <circle cx="50" cy="50" r="4" fill="#00FF9C"/>
    
    <line x1="50" y1="5" x2="50" y2="25" stroke="#00FF9C" stroke-width="1.5"/>
    <line x1="50" y1="75" x2="50" y2="95" stroke="#00FF9C" stroke-width="1.5"/>
    <line x1="5" y1="50" x2="25" y2="50" stroke="#00FF9C" stroke-width="1.5"/>
    <line x1="75" y1="50" x2="95" y2="50" stroke="#00FF9C" stroke-width="1.5"/>
    
    <path d="M 20,35 L 50,50 L 80,35 M 50,50 L 50,85" fill="none" stroke="#00D2FF" stroke-width="1" stroke-dasharray="2,2"/>
</svg>
